<svg width="56" height="56" viewBox="0 0 56 56" fill="none" xmlns="http://www.w3.org/2000/svg">
<g id="GameController">
<path id="Vector" d="M54.1309 39.7564C54.1292 39.7468 54.1274 39.7371 54.1256 39.7275L50.5489 21.26C50.5462 21.2461 50.5419 21.2331 50.5388 21.2193C49.9854 18.1975 48.391 15.465 46.0326 13.4964C43.6741 11.5279 40.7006 10.4476 37.6285 10.4432H37.6234L18.3755 10.5001C15.2877 10.4939 12.2969 11.5791 9.93148 13.5639C7.56603 15.5488 5.97799 18.3056 5.44781 21.3476C5.44503 21.3634 5.44247 21.3794 5.44012 21.3953L1.87582 39.7262C1.8739 39.7363 1.87208 39.7463 1.87026 39.7564C1.57962 41.4056 1.82224 43.1045 2.56289 44.6064C3.30355 46.1084 4.50367 47.3351 5.989 48.1085C7.47433 48.8819 9.16752 49.1618 10.8227 48.9074C12.4779 48.6529 14.0089 47.8776 15.1934 46.6938C15.2251 46.6622 15.2555 46.6295 15.2844 46.5959L24.1939 36.7468L31.8172 36.7164L40.7141 46.5927C40.7438 46.6273 40.775 46.661 40.8078 46.6938C41.9922 47.8777 43.5232 48.6533 45.1785 48.9078C46.8337 49.1623 48.527 48.8825 50.0124 48.109C51.4978 47.3356 52.698 46.1087 53.4386 44.6067C54.1792 43.1047 54.4217 41.4056 54.1309 39.7564L54.1309 39.7564ZM22.7496 25.3751H20.9996V27.1251C20.9996 27.5892 20.8152 28.0343 20.487 28.3625C20.1588 28.6907 19.7137 28.8751 19.2496 28.8751C18.7854 28.8751 18.3403 28.6907 18.0121 28.3625C17.6839 28.0343 17.4996 27.5892 17.4996 27.1251V25.3751H15.7496C15.2854 25.3751 14.8403 25.1907 14.5121 24.8625C14.1839 24.5343 13.9996 24.0892 13.9996 23.6251C13.9996 23.1609 14.1839 22.7158 14.5121 22.3876C14.8403 22.0594 15.2854 21.8751 15.7496 21.8751H17.4996V20.1251C17.4996 19.6609 17.6839 19.2158 18.0121 18.8876C18.3403 18.5594 18.7854 18.3751 19.2496 18.3751C19.7137 18.3751 20.1588 18.5594 20.487 18.8876C20.8152 19.2158 20.9996 19.6609 20.9996 20.1251V21.8751H22.7496C23.2137 21.8751 23.6588 22.0594 23.987 22.3876C24.3152 22.7158 24.4996 23.1609 24.4996 23.6251C24.4996 24.0892 24.3152 24.5343 23.987 24.8625C23.6588 25.1907 23.2137 25.3751 22.7496 25.3751ZM31.4996 23.6251C31.4996 23.1609 31.684 22.7158 32.0121 22.3876C32.3403 22.0594 32.7854 21.8751 33.2496 21.8751H40.2496C40.7137 21.8751 41.1588 22.0594 41.487 22.3876C41.8152 22.7158 41.9996 23.1609 41.9996 23.6251C41.9996 24.0892 41.8152 24.5343 41.487 24.8625C41.1588 25.1907 40.7137 25.3751 40.2496 25.3751H33.2496C32.7854 25.375 32.3403 25.1907 32.0121 24.8625C31.684 24.5343 31.4996 24.0892 31.4996 23.6251ZM47.1353 45.4325C46.4508 45.5527 45.7476 45.5084 45.0837 45.3032C44.4197 45.098 43.8141 44.7379 43.3168 44.2525L36.5111 36.6977L37.6285 36.6932C39.8599 36.6919 42.0541 36.1218 44.0039 35.0367C45.9537 33.9516 47.5946 32.3874 48.7718 30.4918L50.6864 40.3776C50.8827 41.5184 50.6194 42.6906 49.9539 43.6378C49.2885 44.5851 48.2751 45.2303 47.1353 45.4325Z" fill="url(#paint0_linear_567_1659)"/>
</g>
<defs>
<linearGradient id="paint0_linear_567_1659" x1="10.3757" y1="10.4433" x2="56.6752" y2="25.6824" gradientUnits="userSpaceOnUse">
<stop stop-color="#FC84FF"/>
<stop offset="1" stop-color="#54D1FA"/>
</linearGradient>
</defs>
</svg>
